<svg width="512" height="512" viewBox="0 0 38 38" fill="none" xmlns="http://www.w3.org/2000/svg">
  <!-- Modern circle background -->
  <circle cx="19" cy="19" r="14" fill="#0d6efd" fill-opacity="0.92" />
  <!-- Circuit lines -->
  <path d="M19 11v7m0 0c-2.5 0-4.5 1.5-4.5 3.5S16.5 24 19 24s4.5-1.5 4.5-3.5S21.5 18 19 18Z" stroke="#fff" stroke-width="1.5" stroke-linecap="round" stroke-linejoin="round" />
  <circle cx="19" cy="11" r="1.2" fill="#6f42c1" />
  <circle cx="14.5" cy="21.5" r="1.2" fill="#6f42c1" />
  <circle cx="23.5" cy="21.5" r="1.2" fill="#6f42c1" />
  <!-- Stylized S -->
  <path d="M23 16c0-2-1.5-3-4-3s-4 1-4 3c0 2 2 2.5 4 3s4 1 4 3-1.5 3-4 3-4-1-4-3" stroke="#fff" stroke-width="1.5" stroke-linecap="round" stroke-linejoin="round" />
</svg>
