<svg width="512" height="512" viewBox="0 0 38 38" fill="none" xmlns="http://www.w3.org/2000/svg">
  <!-- Shield background -->
  <path d="M19 4C23.5 7 32 8.5 32 14.5c0 10.5-9.5 15.5-13 17-3.5-1.5-13-6.5-13-17C6 8.5 14.5 7 19 4Z" fill="#0d6efd" fill-opacity="0.92" />
  <!-- Circuit lines -->
  <path d="M19 10v7m0 0c-2.5 0-4.5 1.5-4.5 3.5S16.5 24 19 24s4.5-1.5 4.5-3.5S21.5 17 19 17Z" stroke="#fff" stroke-width="1.5" stroke-linecap="round" stroke-linejoin="round" />
  <circle cx="19" cy="10" r="1.2" fill="#6f42c1" />
  <circle cx="14.5" cy="20.5" r="1.2" fill="#6f42c1" />
  <circle cx="23.5" cy="20.5" r="1.2" fill="#6f42c1" />
  <!-- Stylized S -->
  <path d="M23 15c0-2-1.5-3-4-3s-4 1-4 3c0 2 2 2.5 4 3s4 1 4 3-1.5 3-4 3-4-1-4-3" stroke="#fff" stroke-width="1.5" stroke-linecap="round" stroke-linejoin="round" />
</svg>
