<svg width="512" height="512" viewBox="0 0 38 38" fill="none" xmlns="http://www.w3.org/2000/svg">
  <!-- Rounded square background with blue gradient -->
  <rect x="6" y="6" width="26" height="26" rx="7" fill="url(#squareGradient)" />
  <defs>
    <linearGradient id="squareGradient" x1="6" y1="6" x2="32" y2="32" gradientUnits="userSpaceOnUse">
      <stop stop-color="#0d6efd" />
      <stop offset="1" stop-color="#6f42c1" />
    </linearGradient>
  </defs>
  <!-- Circuit lines -->
  <path d="M19 11v7m0 0c-2.5 0-4.5 1.5-4.5 3.5S16.5 24 19 24s4.5-1.5 4.5-3.5S21.5 18 19 18Z" stroke="#fff" stroke-width="1.5" stroke-linecap="round" stroke-linejoin="round" />
  <circle cx="19" cy="11" r="1.2" fill="#fff" />
  <circle cx="14.5" cy="21.5" r="1.2" fill="#fff" />
  <circle cx="23.5" cy="21.5" r="1.2" fill="#fff" />
  <!-- Stylized S -->
  <path d="M23 16c0-2-1.5-3-4-3s-4 1-4 3c0 2 2 2.5 4 3s4 1 4 3-1.5 3-4 3-4-1-4-3" stroke="#fff" stroke-width="1.5" stroke-linecap="round" stroke-linejoin="round" />
  <!-- Stylized K -->
  <path d="M26 13v10m0-5l3-5m-3 5l3 5" stroke="#fff" stroke-width="1.5" stroke-linecap="round" stroke-linejoin="round" />
</svg>
